<mxfile host="app.diagrams.net" agent="Mozilla/5.0 (Windows NT 10.0; Win64; x64) AppleWebKit/537.36 (KHTML, like Gecko) Chrome/129.0.0.0 Safari/537.36 Edg/129.0.0.0" version="24.7.17">
  <diagram id="R2lEEEUBdFMjLlhIrx00" name="Page-1">
    <mxGraphModel dx="2192" dy="740" grid="1" gridSize="10" guides="1" tooltips="1" connect="1" arrows="1" fold="1" page="1" pageScale="1" pageWidth="850" pageHeight="1100" math="0" shadow="0" extFonts="Permanent Marker^https://fonts.googleapis.com/css?family=Permanent+Marker">
      <root>
        <mxCell id="0" />
        <mxCell id="1" parent="0" />
        <mxCell id="KiUVwF4uRPEYHYOwP-1L-24" value="" style="rounded=0;whiteSpace=wrap;html=1;fillColor=none;" vertex="1" parent="1">
          <mxGeometry x="50" y="90" width="800" height="460" as="geometry" />
        </mxCell>
        <mxCell id="LrIHmFkCat6K3HTldak7-1" value="Empleado" style="rounded=0;whiteSpace=wrap;html=1;" parent="1" vertex="1">
          <mxGeometry x="220" y="120" width="120" height="60" as="geometry" />
        </mxCell>
        <mxCell id="LrIHmFkCat6K3HTldak7-2" value="cod_emp" style="ellipse;whiteSpace=wrap;html=1;" parent="1" vertex="1">
          <mxGeometry x="170" y="26.67" width="50" height="33.33" as="geometry" />
        </mxCell>
        <mxCell id="LrIHmFkCat6K3HTldak7-3" value="nombre" style="ellipse;whiteSpace=wrap;html=1;" parent="1" vertex="1">
          <mxGeometry x="255" y="26.67" width="50" height="33.33" as="geometry" />
        </mxCell>
        <mxCell id="LrIHmFkCat6K3HTldak7-4" value="tlf" style="ellipse;whiteSpace=wrap;html=1;" parent="1" vertex="1">
          <mxGeometry x="90" y="26.67" width="50" height="33.33" as="geometry" />
        </mxCell>
        <mxCell id="LrIHmFkCat6K3HTldak7-5" value="fecha_nac" style="ellipse;whiteSpace=wrap;html=1;" parent="1" vertex="1">
          <mxGeometry x="410" y="21.67" width="65" height="43.33" as="geometry" />
        </mxCell>
        <mxCell id="LrIHmFkCat6K3HTldak7-6" value="dni" style="ellipse;whiteSpace=wrap;html=1;" parent="1" vertex="1">
          <mxGeometry x="340" y="26.67" width="50" height="33.33" as="geometry" />
        </mxCell>
        <mxCell id="LrIHmFkCat6K3HTldak7-8" value="edad" style="ellipse;whiteSpace=wrap;html=1;dashed=1;" parent="1" vertex="1">
          <mxGeometry x="402.5" y="200" width="80" height="40" as="geometry" />
        </mxCell>
        <mxCell id="LrIHmFkCat6K3HTldak7-9" value="" style="shape=link;html=1;rounded=0;exitX=0.5;exitY=1;exitDx=0;exitDy=0;" parent="1" source="LrIHmFkCat6K3HTldak7-1" edge="1">
          <mxGeometry width="100" relative="1" as="geometry">
            <mxPoint x="380" y="240" as="sourcePoint" />
            <mxPoint x="280" y="280" as="targetPoint" />
          </mxGeometry>
        </mxCell>
        <mxCell id="LrIHmFkCat6K3HTldak7-12" value="d" style="ellipse;whiteSpace=wrap;html=1;" parent="1" vertex="1">
          <mxGeometry x="242.5" y="280" width="75" height="50" as="geometry" />
        </mxCell>
        <mxCell id="LrIHmFkCat6K3HTldak7-14" value="Piloto" style="rounded=0;whiteSpace=wrap;html=1;" parent="1" vertex="1">
          <mxGeometry x="125" y="460" width="120" height="60" as="geometry" />
        </mxCell>
        <mxCell id="LrIHmFkCat6K3HTldak7-15" value="Vehiculo" style="rounded=0;whiteSpace=wrap;html=1;" parent="1" vertex="1">
          <mxGeometry x="-270" y="460" width="120" height="60" as="geometry" />
        </mxCell>
        <mxCell id="LrIHmFkCat6K3HTldak7-16" value="" style="endArrow=none;html=1;rounded=0;exitX=1;exitY=0.5;exitDx=0;exitDy=0;entryX=0;entryY=0.5;entryDx=0;entryDy=0;" parent="1" source="LrIHmFkCat6K3HTldak7-15" target="LrIHmFkCat6K3HTldak7-20" edge="1">
          <mxGeometry width="50" height="50" relative="1" as="geometry">
            <mxPoint x="130" y="550" as="sourcePoint" />
            <mxPoint x="180" y="500" as="targetPoint" />
          </mxGeometry>
        </mxCell>
        <mxCell id="LrIHmFkCat6K3HTldak7-19" value="(0,2)" style="edgeLabel;html=1;align=center;verticalAlign=middle;resizable=0;points=[];" parent="LrIHmFkCat6K3HTldak7-16" vertex="1" connectable="0">
          <mxGeometry x="-0.0029" y="-6" relative="1" as="geometry">
            <mxPoint x="55" y="24" as="offset" />
          </mxGeometry>
        </mxCell>
        <mxCell id="LrIHmFkCat6K3HTldak7-20" value="conduce" style="rhombus;whiteSpace=wrap;html=1;" parent="1" vertex="1">
          <mxGeometry x="-40" y="450" width="80" height="80" as="geometry" />
        </mxCell>
        <mxCell id="LrIHmFkCat6K3HTldak7-22" value="" style="endArrow=none;html=1;rounded=0;entryX=0;entryY=0.5;entryDx=0;entryDy=0;exitX=1;exitY=0.5;exitDx=0;exitDy=0;" parent="1" source="LrIHmFkCat6K3HTldak7-20" target="LrIHmFkCat6K3HTldak7-14" edge="1">
          <mxGeometry width="50" height="50" relative="1" as="geometry">
            <mxPoint x="40" y="490" as="sourcePoint" />
            <mxPoint x="120" y="490" as="targetPoint" />
            <Array as="points" />
          </mxGeometry>
        </mxCell>
        <mxCell id="LrIHmFkCat6K3HTldak7-23" value="(0,N)" style="edgeLabel;html=1;align=center;verticalAlign=middle;resizable=0;points=[];" parent="LrIHmFkCat6K3HTldak7-22" vertex="1" connectable="0">
          <mxGeometry x="-0.0029" y="-6" relative="1" as="geometry">
            <mxPoint x="-42" y="24" as="offset" />
          </mxGeometry>
        </mxCell>
        <mxCell id="LrIHmFkCat6K3HTldak7-33" value="(0,N)" style="text;html=1;align=center;verticalAlign=middle;resizable=0;points=[];autosize=1;strokeColor=none;fillColor=none;" parent="1" vertex="1">
          <mxGeometry x="135" y="305" width="50" height="30" as="geometry" />
        </mxCell>
        <mxCell id="LrIHmFkCat6K3HTldak7-34" value="(0,1)" style="text;html=1;align=center;verticalAlign=middle;resizable=0;points=[];autosize=1;strokeColor=none;fillColor=none;" parent="1" vertex="1">
          <mxGeometry x="70" y="305" width="50" height="30" as="geometry" />
        </mxCell>
        <mxCell id="LrIHmFkCat6K3HTldak7-36" value="es sustituido" style="text;html=1;align=center;verticalAlign=middle;resizable=0;points=[];autosize=1;strokeColor=none;fillColor=none;rotation=90;" parent="1" vertex="1">
          <mxGeometry x="40" y="370" width="90" height="30" as="geometry" />
        </mxCell>
        <mxCell id="LrIHmFkCat6K3HTldak7-37" value="sustituye" style="text;html=1;align=center;verticalAlign=middle;resizable=0;points=[];autosize=1;strokeColor=none;fillColor=none;rotation=-90;" parent="1" vertex="1">
          <mxGeometry x="138.75" y="360" width="70" height="30" as="geometry" />
        </mxCell>
        <mxCell id="LrIHmFkCat6K3HTldak7-39" value="cod_pil" style="ellipse;whiteSpace=wrap;html=1;" parent="1" vertex="1">
          <mxGeometry x="160" y="620" width="50" height="33.33" as="geometry" />
        </mxCell>
        <mxCell id="LrIHmFkCat6K3HTldak7-41" value="nom_piloto" style="ellipse;whiteSpace=wrap;html=1;" parent="1" vertex="1">
          <mxGeometry x="300" y="620" width="50" height="33.33" as="geometry" />
        </mxCell>
        <mxCell id="LrIHmFkCat6K3HTldak7-42" value="num_camp" style="ellipse;whiteSpace=wrap;html=1;" parent="1" vertex="1">
          <mxGeometry x="230" y="619.9999999999999" width="50" height="33.33" as="geometry" />
        </mxCell>
        <mxCell id="LrIHmFkCat6K3HTldak7-43" value="" style="endArrow=none;html=1;rounded=0;entryX=0.5;entryY=0;entryDx=0;entryDy=0;exitX=0.5;exitY=1;exitDx=0;exitDy=0;" parent="1" source="LrIHmFkCat6K3HTldak7-14" target="LrIHmFkCat6K3HTldak7-39" edge="1">
          <mxGeometry width="50" height="50" relative="1" as="geometry">
            <mxPoint x="180" y="470" as="sourcePoint" />
            <mxPoint x="230" y="420" as="targetPoint" />
          </mxGeometry>
        </mxCell>
        <mxCell id="LrIHmFkCat6K3HTldak7-44" value="" style="endArrow=none;html=1;rounded=0;entryX=0.5;entryY=0;entryDx=0;entryDy=0;exitX=0.5;exitY=1;exitDx=0;exitDy=0;" parent="1" source="LrIHmFkCat6K3HTldak7-14" target="LrIHmFkCat6K3HTldak7-42" edge="1">
          <mxGeometry width="50" height="50" relative="1" as="geometry">
            <mxPoint x="180" y="470" as="sourcePoint" />
            <mxPoint x="230" y="420" as="targetPoint" />
          </mxGeometry>
        </mxCell>
        <mxCell id="LrIHmFkCat6K3HTldak7-45" value="" style="endArrow=none;html=1;rounded=0;entryX=0.5;entryY=0;entryDx=0;entryDy=0;exitX=0.5;exitY=1;exitDx=0;exitDy=0;" parent="1" source="LrIHmFkCat6K3HTldak7-14" target="LrIHmFkCat6K3HTldak7-41" edge="1">
          <mxGeometry width="50" height="50" relative="1" as="geometry">
            <mxPoint x="180" y="470" as="sourcePoint" />
            <mxPoint x="230" y="420" as="targetPoint" />
          </mxGeometry>
        </mxCell>
        <mxCell id="LrIHmFkCat6K3HTldak7-52" value="" style="rhombus;whiteSpace=wrap;html=1;" parent="1" vertex="1">
          <mxGeometry x="-380" y="399.99999999999994" width="40" height="40" as="geometry" />
        </mxCell>
        <mxCell id="LrIHmFkCat6K3HTldak7-53" value="" style="endArrow=none;html=1;rounded=0;entryX=0;entryY=0.5;entryDx=0;entryDy=0;exitX=0.5;exitY=1;exitDx=0;exitDy=0;" parent="1" source="LrIHmFkCat6K3HTldak7-52" target="LrIHmFkCat6K3HTldak7-15" edge="1">
          <mxGeometry width="50" height="50" relative="1" as="geometry">
            <mxPoint x="-160" y="570" as="sourcePoint" />
            <mxPoint x="-110" y="520" as="targetPoint" />
            <Array as="points">
              <mxPoint x="-360" y="490" />
            </Array>
          </mxGeometry>
        </mxCell>
        <mxCell id="LrIHmFkCat6K3HTldak7-54" value="" style="endArrow=none;html=1;rounded=0;exitX=0.5;exitY=0;exitDx=0;exitDy=0;" parent="1" source="LrIHmFkCat6K3HTldak7-52" target="LrIHmFkCat6K3HTldak7-55" edge="1">
          <mxGeometry width="50" height="50" relative="1" as="geometry">
            <mxPoint x="-160" y="570" as="sourcePoint" />
            <mxPoint x="-110" y="520" as="targetPoint" />
          </mxGeometry>
        </mxCell>
        <mxCell id="LrIHmFkCat6K3HTldak7-55" value="Pieza" style="rounded=0;whiteSpace=wrap;html=1;" parent="1" vertex="1">
          <mxGeometry x="-420" y="280" width="120" height="60" as="geometry" />
        </mxCell>
        <mxCell id="LrIHmFkCat6K3HTldak7-56" value="(1,n)" style="text;html=1;align=center;verticalAlign=middle;resizable=0;points=[];autosize=1;strokeColor=none;fillColor=none;" parent="1" vertex="1">
          <mxGeometry x="-335" y="488" width="50" height="30" as="geometry" />
        </mxCell>
        <mxCell id="LrIHmFkCat6K3HTldak7-57" value="(1,1)" style="text;html=1;align=center;verticalAlign=middle;resizable=0;points=[];autosize=1;strokeColor=none;fillColor=none;" parent="1" vertex="1">
          <mxGeometry x="-365" y="348" width="50" height="30" as="geometry" />
        </mxCell>
        <mxCell id="ec1Hdf8cKEaBVfaDkCQi-2" value="Carrera" style="rounded=0;whiteSpace=wrap;html=1;" parent="1" vertex="1">
          <mxGeometry x="65" y="930" width="120" height="60" as="geometry" />
        </mxCell>
        <mxCell id="ec1Hdf8cKEaBVfaDkCQi-3" value="" style="endArrow=none;html=1;rounded=0;fontSize=12;startSize=8;endSize=8;curved=1;entryX=0.5;entryY=1;entryDx=0;entryDy=0;exitX=0.5;exitY=0;exitDx=0;exitDy=0;" parent="1" source="ec1Hdf8cKEaBVfaDkCQi-2" target="ec1Hdf8cKEaBVfaDkCQi-4" edge="1">
          <mxGeometry width="50" height="50" relative="1" as="geometry">
            <mxPoint x="-40" y="900" as="sourcePoint" />
            <mxPoint x="10" y="850" as="targetPoint" />
          </mxGeometry>
        </mxCell>
        <mxCell id="ec1Hdf8cKEaBVfaDkCQi-4" value="compite" style="rhombus;whiteSpace=wrap;html=1;" parent="1" vertex="1">
          <mxGeometry x="100" y="800" width="50" height="50" as="geometry" />
        </mxCell>
        <mxCell id="ec1Hdf8cKEaBVfaDkCQi-6" value="" style="endArrow=none;html=1;rounded=0;fontSize=12;startSize=8;endSize=8;curved=1;exitX=0;exitY=1;exitDx=0;exitDy=0;entryX=0.5;entryY=0;entryDx=0;entryDy=0;" parent="1" source="LrIHmFkCat6K3HTldak7-14" target="ec1Hdf8cKEaBVfaDkCQi-4" edge="1">
          <mxGeometry width="50" height="50" relative="1" as="geometry">
            <mxPoint x="330" y="490" as="sourcePoint" />
            <mxPoint x="380" y="440" as="targetPoint" />
          </mxGeometry>
        </mxCell>
        <mxCell id="ec1Hdf8cKEaBVfaDkCQi-8" value="(0,M)" style="text;html=1;align=center;verticalAlign=middle;resizable=0;points=[];autosize=1;strokeColor=none;fillColor=none;" parent="1" vertex="1">
          <mxGeometry x="120" y="900" width="50" height="30" as="geometry" />
        </mxCell>
        <mxCell id="ec1Hdf8cKEaBVfaDkCQi-9" value="(0,N)" style="text;html=1;align=center;verticalAlign=middle;resizable=0;points=[];autosize=1;strokeColor=none;fillColor=none;" parent="1" vertex="1">
          <mxGeometry x="120" y="520" width="50" height="30" as="geometry" />
        </mxCell>
        <mxCell id="ec1Hdf8cKEaBVfaDkCQi-10" value="Ingeniero de carrera" style="rounded=0;whiteSpace=wrap;html=1;" parent="1" vertex="1">
          <mxGeometry x="440" y="460" width="120" height="60" as="geometry" />
        </mxCell>
        <mxCell id="ec1Hdf8cKEaBVfaDkCQi-11" value="" style="endArrow=none;html=1;rounded=0;fontSize=12;startSize=8;endSize=8;curved=1;exitX=1;exitY=0.5;exitDx=0;exitDy=0;entryX=0;entryY=0.5;entryDx=0;entryDy=0;" parent="1" source="LrIHmFkCat6K3HTldak7-14" target="ec1Hdf8cKEaBVfaDkCQi-13" edge="1">
          <mxGeometry width="50" height="50" relative="1" as="geometry">
            <mxPoint x="275" y="463.33000000000004" as="sourcePoint" />
            <mxPoint x="325" y="413.33000000000004" as="targetPoint" />
          </mxGeometry>
        </mxCell>
        <mxCell id="ec1Hdf8cKEaBVfaDkCQi-13" value="" style="rhombus;whiteSpace=wrap;html=1;" parent="1" vertex="1">
          <mxGeometry x="317.5" y="465" width="50" height="50" as="geometry" />
        </mxCell>
        <mxCell id="ec1Hdf8cKEaBVfaDkCQi-14" value="" style="endArrow=none;html=1;rounded=0;fontSize=12;startSize=8;endSize=8;curved=1;exitX=1;exitY=0.5;exitDx=0;exitDy=0;entryX=0;entryY=0.5;entryDx=0;entryDy=0;" parent="1" source="ec1Hdf8cKEaBVfaDkCQi-13" target="ec1Hdf8cKEaBVfaDkCQi-10" edge="1">
          <mxGeometry width="50" height="50" relative="1" as="geometry">
            <mxPoint x="340" y="610" as="sourcePoint" />
            <mxPoint x="390" y="560" as="targetPoint" />
          </mxGeometry>
        </mxCell>
        <mxCell id="ec1Hdf8cKEaBVfaDkCQi-15" value="Mecanico" style="rounded=0;whiteSpace=wrap;html=1;" parent="1" vertex="1">
          <mxGeometry x="660" y="460" width="120" height="60" as="geometry" />
        </mxCell>
        <mxCell id="ec1Hdf8cKEaBVfaDkCQi-16" value="" style="endArrow=none;html=1;rounded=0;fontSize=12;startSize=8;endSize=8;curved=1;exitX=0;exitY=0.75;exitDx=0;exitDy=0;" parent="1" source="LrIHmFkCat6K3HTldak7-14" edge="1">
          <mxGeometry width="50" height="50" relative="1" as="geometry">
            <mxPoint x="340" y="610" as="sourcePoint" />
            <mxPoint x="20" y="610" as="targetPoint" />
          </mxGeometry>
        </mxCell>
        <mxCell id="ec1Hdf8cKEaBVfaDkCQi-17" value="" style="endArrow=none;html=1;rounded=0;fontSize=12;startSize=8;endSize=8;curved=1;" parent="1" edge="1">
          <mxGeometry width="50" height="50" relative="1" as="geometry">
            <mxPoint x="20" y="610" as="sourcePoint" />
            <mxPoint x="20" y="1060" as="targetPoint" />
          </mxGeometry>
        </mxCell>
        <mxCell id="ec1Hdf8cKEaBVfaDkCQi-18" value="" style="endArrow=none;html=1;rounded=0;fontSize=12;startSize=8;endSize=8;curved=1;" parent="1" source="ec1Hdf8cKEaBVfaDkCQi-20" edge="1">
          <mxGeometry width="50" height="50" relative="1" as="geometry">
            <mxPoint x="20" y="1060" as="sourcePoint" />
            <mxPoint x="720" y="1060" as="targetPoint" />
          </mxGeometry>
        </mxCell>
        <mxCell id="ec1Hdf8cKEaBVfaDkCQi-19" value="" style="endArrow=none;html=1;rounded=0;fontSize=12;startSize=8;endSize=8;curved=1;entryX=0.5;entryY=1;entryDx=0;entryDy=0;" parent="1" target="ec1Hdf8cKEaBVfaDkCQi-15" edge="1">
          <mxGeometry width="50" height="50" relative="1" as="geometry">
            <mxPoint x="720" y="1060" as="sourcePoint" />
            <mxPoint x="540" y="690" as="targetPoint" />
          </mxGeometry>
        </mxCell>
        <mxCell id="ec1Hdf8cKEaBVfaDkCQi-21" value="" style="endArrow=none;html=1;rounded=0;fontSize=12;startSize=8;endSize=8;curved=1;" parent="1" target="ec1Hdf8cKEaBVfaDkCQi-20" edge="1">
          <mxGeometry width="50" height="50" relative="1" as="geometry">
            <mxPoint x="20" y="1060" as="sourcePoint" />
            <mxPoint x="720" y="1060" as="targetPoint" />
          </mxGeometry>
        </mxCell>
        <mxCell id="ec1Hdf8cKEaBVfaDkCQi-20" value="" style="rhombus;whiteSpace=wrap;html=1;" parent="1" vertex="1">
          <mxGeometry x="360" y="1030" width="60" height="60" as="geometry" />
        </mxCell>
        <mxCell id="KiUVwF4uRPEYHYOwP-1L-1" value="" style="endArrow=none;html=1;rounded=0;entryX=0.5;entryY=1;entryDx=0;entryDy=0;exitX=0.5;exitY=0;exitDx=0;exitDy=0;" edge="1" parent="1" source="LrIHmFkCat6K3HTldak7-14" target="LrIHmFkCat6K3HTldak7-12">
          <mxGeometry width="50" height="50" relative="1" as="geometry">
            <mxPoint x="240" y="390" as="sourcePoint" />
            <mxPoint x="290" y="340" as="targetPoint" />
          </mxGeometry>
        </mxCell>
        <mxCell id="KiUVwF4uRPEYHYOwP-1L-2" value="" style="endArrow=none;html=1;rounded=0;entryX=0.5;entryY=1;entryDx=0;entryDy=0;exitX=0.5;exitY=0;exitDx=0;exitDy=0;" edge="1" parent="1" source="ec1Hdf8cKEaBVfaDkCQi-10" target="LrIHmFkCat6K3HTldak7-12">
          <mxGeometry width="50" height="50" relative="1" as="geometry">
            <mxPoint x="240" y="420" as="sourcePoint" />
            <mxPoint x="290" y="370" as="targetPoint" />
            <Array as="points" />
          </mxGeometry>
        </mxCell>
        <mxCell id="KiUVwF4uRPEYHYOwP-1L-3" value="" style="endArrow=none;html=1;rounded=0;entryX=0.5;entryY=1;entryDx=0;entryDy=0;exitX=0.5;exitY=0;exitDx=0;exitDy=0;" edge="1" parent="1" source="ec1Hdf8cKEaBVfaDkCQi-15" target="LrIHmFkCat6K3HTldak7-12">
          <mxGeometry width="50" height="50" relative="1" as="geometry">
            <mxPoint x="240" y="420" as="sourcePoint" />
            <mxPoint x="290" y="370" as="targetPoint" />
            <Array as="points">
              <mxPoint x="560" y="360" />
            </Array>
          </mxGeometry>
        </mxCell>
        <mxCell id="KiUVwF4uRPEYHYOwP-1L-4" value="Moto" style="rounded=0;whiteSpace=wrap;html=1;" vertex="1" parent="1">
          <mxGeometry x="-365" y="690" width="100" height="50" as="geometry" />
        </mxCell>
        <mxCell id="KiUVwF4uRPEYHYOwP-1L-6" value="Coche" style="rounded=0;whiteSpace=wrap;html=1;" vertex="1" parent="1">
          <mxGeometry x="-150" y="685" width="120" height="60" as="geometry" />
        </mxCell>
        <mxCell id="KiUVwF4uRPEYHYOwP-1L-8" value="" style="endArrow=none;html=1;rounded=0;exitX=0.5;exitY=0;exitDx=0;exitDy=0;entryX=0;entryY=1;entryDx=0;entryDy=0;" edge="1" parent="1" source="KiUVwF4uRPEYHYOwP-1L-4" target="KiUVwF4uRPEYHYOwP-1L-10">
          <mxGeometry width="50" height="50" relative="1" as="geometry">
            <mxPoint x="120" y="500" as="sourcePoint" />
            <mxPoint x="-240" y="610" as="targetPoint" />
            <Array as="points">
              <mxPoint x="-315" y="610" />
            </Array>
          </mxGeometry>
        </mxCell>
        <mxCell id="KiUVwF4uRPEYHYOwP-1L-10" value="d" style="ellipse;whiteSpace=wrap;html=1;aspect=fixed;" vertex="1" parent="1">
          <mxGeometry x="-240" y="560" width="60" height="60" as="geometry" />
        </mxCell>
        <mxCell id="KiUVwF4uRPEYHYOwP-1L-11" value="" style="endArrow=none;html=1;rounded=0;entryX=1;entryY=1;entryDx=0;entryDy=0;exitX=0.5;exitY=0;exitDx=0;exitDy=0;" edge="1" parent="1" source="KiUVwF4uRPEYHYOwP-1L-6" target="KiUVwF4uRPEYHYOwP-1L-10">
          <mxGeometry width="50" height="50" relative="1" as="geometry">
            <mxPoint x="150" y="490" as="sourcePoint" />
            <mxPoint x="200" y="440" as="targetPoint" />
            <Array as="points">
              <mxPoint x="-90" y="611" />
            </Array>
          </mxGeometry>
        </mxCell>
        <mxCell id="KiUVwF4uRPEYHYOwP-1L-13" value="" style="endArrow=none;html=1;rounded=0;exitX=1;exitY=0.5;exitDx=0;exitDy=0;" edge="1" parent="1" source="ec1Hdf8cKEaBVfaDkCQi-4" target="KiUVwF4uRPEYHYOwP-1L-14">
          <mxGeometry width="50" height="50" relative="1" as="geometry">
            <mxPoint x="210" y="750" as="sourcePoint" />
            <mxPoint x="260" y="700" as="targetPoint" />
          </mxGeometry>
        </mxCell>
        <mxCell id="KiUVwF4uRPEYHYOwP-1L-14" value="puntos" style="ellipse;whiteSpace=wrap;html=1;" vertex="1" parent="1">
          <mxGeometry x="208.75" y="806.25" width="56.25" height="37.5" as="geometry" />
        </mxCell>
        <mxCell id="KiUVwF4uRPEYHYOwP-1L-15" value="(0,M)" style="text;html=1;align=center;verticalAlign=middle;whiteSpace=wrap;rounded=0;" vertex="1" parent="1">
          <mxGeometry x="317.5" y="1060" width="60" height="30" as="geometry" />
        </mxCell>
        <mxCell id="KiUVwF4uRPEYHYOwP-1L-17" value="(0,N)" style="text;html=1;align=center;verticalAlign=middle;whiteSpace=wrap;rounded=0;" vertex="1" parent="1">
          <mxGeometry x="410" y="1030" width="60" height="30" as="geometry" />
        </mxCell>
        <mxCell id="KiUVwF4uRPEYHYOwP-1L-18" value="Proveedor" style="rounded=0;whiteSpace=wrap;html=1;" vertex="1" parent="1">
          <mxGeometry x="-660" y="280" width="120" height="60" as="geometry" />
        </mxCell>
        <mxCell id="KiUVwF4uRPEYHYOwP-1L-19" value="Patrocinadores" style="rounded=0;whiteSpace=wrap;html=1;" vertex="1" parent="1">
          <mxGeometry x="1130" y="290" width="120" height="60" as="geometry" />
        </mxCell>
        <mxCell id="KiUVwF4uRPEYHYOwP-1L-20" value="Entrenamientos" style="rounded=0;whiteSpace=wrap;html=1;" vertex="1" parent="1">
          <mxGeometry x="330" y="900" width="120" height="60" as="geometry" />
        </mxCell>
        <mxCell id="KiUVwF4uRPEYHYOwP-1L-21" value="Contrato" style="rounded=0;whiteSpace=wrap;html=1;" vertex="1" parent="1">
          <mxGeometry x="-120" y="120" width="120" height="60" as="geometry" />
        </mxCell>
        <mxCell id="KiUVwF4uRPEYHYOwP-1L-22" value="Resultados" style="rounded=0;whiteSpace=wrap;html=1;" vertex="1" parent="1">
          <mxGeometry x="450" y="660" width="120" height="60" as="geometry" />
        </mxCell>
        <mxCell id="KiUVwF4uRPEYHYOwP-1L-23" value="Calendario" style="rounded=0;whiteSpace=wrap;html=1;" vertex="1" parent="1">
          <mxGeometry x="530" y="820" width="120" height="60" as="geometry" />
        </mxCell>
        <mxCell id="KiUVwF4uRPEYHYOwP-1L-26" style="edgeStyle=orthogonalEdgeStyle;rounded=0;orthogonalLoop=1;jettySize=auto;html=1;exitX=0.5;exitY=1;exitDx=0;exitDy=0;" edge="1" parent="1" source="KiUVwF4uRPEYHYOwP-1L-24" target="KiUVwF4uRPEYHYOwP-1L-24">
          <mxGeometry relative="1" as="geometry" />
        </mxCell>
        <mxCell id="KiUVwF4uRPEYHYOwP-1L-28" value="&lt;br&gt;&lt;span style=&quot;color: rgb(0, 0, 0); font-family: Helvetica; font-size: 12px; font-style: normal; font-variant-ligatures: normal; font-variant-caps: normal; font-weight: 400; letter-spacing: normal; orphans: 2; text-align: center; text-indent: 0px; text-transform: none; widows: 2; word-spacing: 0px; -webkit-text-stroke-width: 0px; white-space: nowrap; background-color: rgb(251, 251, 251); text-decoration-thickness: initial; text-decoration-style: initial; text-decoration-color: initial; display: inline !important; float: none;&quot;&gt;sustituye&lt;/span&gt;&lt;br&gt;&lt;div&gt;&lt;span style=&quot;color: rgb(0, 0, 0); font-family: Helvetica; font-size: 12px; font-style: normal; font-variant-ligatures: normal; font-variant-caps: normal; font-weight: 400; letter-spacing: normal; orphans: 2; text-align: center; text-indent: 0px; text-transform: none; widows: 2; word-spacing: 0px; -webkit-text-stroke-width: 0px; white-space: nowrap; background-color: rgb(251, 251, 251); text-decoration-thickness: initial; text-decoration-style: initial; text-decoration-color: initial; display: inline !important; float: none;&quot;&gt;&lt;br&gt;&lt;/span&gt;&lt;/div&gt;" style="rhombus;whiteSpace=wrap;html=1;" vertex="1" parent="1">
          <mxGeometry x="110" y="280" width="40" height="40" as="geometry" />
        </mxCell>
        <mxCell id="KiUVwF4uRPEYHYOwP-1L-29" value="" style="endArrow=none;html=1;rounded=0;exitX=0.5;exitY=0;exitDx=0;exitDy=0;entryX=1;entryY=0.5;entryDx=0;entryDy=0;" edge="1" parent="1" source="LrIHmFkCat6K3HTldak7-14" target="KiUVwF4uRPEYHYOwP-1L-28">
          <mxGeometry width="50" height="50" relative="1" as="geometry">
            <mxPoint x="270" y="400" as="sourcePoint" />
            <mxPoint x="320" y="350" as="targetPoint" />
            <Array as="points">
              <mxPoint x="185" y="300" />
            </Array>
          </mxGeometry>
        </mxCell>
        <mxCell id="KiUVwF4uRPEYHYOwP-1L-30" value="" style="endArrow=none;html=1;rounded=0;exitX=0.25;exitY=0;exitDx=0;exitDy=0;entryX=0;entryY=0.5;entryDx=0;entryDy=0;" edge="1" parent="1" source="LrIHmFkCat6K3HTldak7-14" target="KiUVwF4uRPEYHYOwP-1L-28">
          <mxGeometry width="50" height="50" relative="1" as="geometry">
            <mxPoint x="170" y="510" as="sourcePoint" />
            <mxPoint x="220" y="460" as="targetPoint" />
            <Array as="points">
              <mxPoint x="155" y="430" />
              <mxPoint x="70" y="430" />
              <mxPoint x="70" y="300" />
            </Array>
          </mxGeometry>
        </mxCell>
        <mxCell id="KiUVwF4uRPEYHYOwP-1L-31" value="&lt;font style=&quot;font-size: 17px;&quot;&gt;EQUIPO&lt;/font&gt;" style="text;html=1;align=center;verticalAlign=middle;whiteSpace=wrap;rounded=0;" vertex="1" parent="1">
          <mxGeometry x="840" y="385" width="100" height="70" as="geometry" />
        </mxCell>
        <mxCell id="KiUVwF4uRPEYHYOwP-1L-32" value="" style="endArrow=none;html=1;rounded=0;exitX=0;exitY=0.5;exitDx=0;exitDy=0;entryX=1;entryY=0.5;entryDx=0;entryDy=0;" edge="1" parent="1" source="KiUVwF4uRPEYHYOwP-1L-33" target="KiUVwF4uRPEYHYOwP-1L-24">
          <mxGeometry width="50" height="50" relative="1" as="geometry">
            <mxPoint x="770" y="600" as="sourcePoint" />
            <mxPoint x="1070" y="600" as="targetPoint" />
          </mxGeometry>
        </mxCell>
        <mxCell id="KiUVwF4uRPEYHYOwP-1L-33" value="patrocina" style="rhombus;whiteSpace=wrap;html=1;" vertex="1" parent="1">
          <mxGeometry x="980" y="291" width="58" height="58" as="geometry" />
        </mxCell>
        <mxCell id="KiUVwF4uRPEYHYOwP-1L-34" value="" style="endArrow=none;html=1;rounded=0;exitX=0;exitY=0.5;exitDx=0;exitDy=0;entryX=1;entryY=0.5;entryDx=0;entryDy=0;" edge="1" parent="1" source="KiUVwF4uRPEYHYOwP-1L-19" target="KiUVwF4uRPEYHYOwP-1L-33">
          <mxGeometry width="50" height="50" relative="1" as="geometry">
            <mxPoint x="770" y="600" as="sourcePoint" />
            <mxPoint x="820" y="550" as="targetPoint" />
          </mxGeometry>
        </mxCell>
        <mxCell id="KiUVwF4uRPEYHYOwP-1L-35" value="" style="shape=link;html=1;rounded=0;exitX=0.5;exitY=1;exitDx=0;exitDy=0;entryX=0.5;entryY=0;entryDx=0;entryDy=0;" edge="1" parent="1" source="LrIHmFkCat6K3HTldak7-15" target="KiUVwF4uRPEYHYOwP-1L-10">
          <mxGeometry width="100" relative="1" as="geometry">
            <mxPoint x="-130" y="410" as="sourcePoint" />
            <mxPoint x="-130" y="510" as="targetPoint" />
          </mxGeometry>
        </mxCell>
        <mxCell id="KiUVwF4uRPEYHYOwP-1L-36" value="" style="endArrow=none;html=1;rounded=0;exitX=0.999;exitY=0.912;exitDx=0;exitDy=0;exitPerimeter=0;" edge="1" parent="1" source="KiUVwF4uRPEYHYOwP-1L-24" target="KiUVwF4uRPEYHYOwP-1L-37">
          <mxGeometry width="50" height="50" relative="1" as="geometry">
            <mxPoint x="930" y="630" as="sourcePoint" />
            <mxPoint x="980" y="580" as="targetPoint" />
          </mxGeometry>
        </mxCell>
        <mxCell id="KiUVwF4uRPEYHYOwP-1L-37" value="o" style="ellipse;whiteSpace=wrap;html=1;aspect=fixed;" vertex="1" parent="1">
          <mxGeometry x="950" y="475" width="70" height="70" as="geometry" />
        </mxCell>
        <mxCell id="KiUVwF4uRPEYHYOwP-1L-39" value="F1" style="rounded=0;whiteSpace=wrap;html=1;" vertex="1" parent="1">
          <mxGeometry x="1130" y="378" width="120" height="60" as="geometry" />
        </mxCell>
        <mxCell id="KiUVwF4uRPEYHYOwP-1L-40" value="F2" style="rounded=0;whiteSpace=wrap;html=1;" vertex="1" parent="1">
          <mxGeometry x="1130" y="480" width="120" height="60" as="geometry" />
        </mxCell>
        <mxCell id="KiUVwF4uRPEYHYOwP-1L-41" value="MotoGP" style="rounded=0;whiteSpace=wrap;html=1;" vertex="1" parent="1">
          <mxGeometry x="1130" y="580" width="120" height="60" as="geometry" />
        </mxCell>
        <mxCell id="KiUVwF4uRPEYHYOwP-1L-44" value="" style="endArrow=none;html=1;rounded=0;exitX=0.5;exitY=0;exitDx=0;exitDy=0;entryX=0;entryY=0.5;entryDx=0;entryDy=0;" edge="1" parent="1" source="KiUVwF4uRPEYHYOwP-1L-37" target="KiUVwF4uRPEYHYOwP-1L-39">
          <mxGeometry width="50" height="50" relative="1" as="geometry">
            <mxPoint x="850" y="420" as="sourcePoint" />
            <mxPoint x="900" y="370" as="targetPoint" />
            <Array as="points">
              <mxPoint x="985" y="408" />
              <mxPoint x="1020" y="408" />
            </Array>
          </mxGeometry>
        </mxCell>
        <mxCell id="KiUVwF4uRPEYHYOwP-1L-45" value="" style="endArrow=none;html=1;rounded=0;exitX=1;exitY=0.5;exitDx=0;exitDy=0;entryX=0;entryY=0.5;entryDx=0;entryDy=0;" edge="1" parent="1" source="KiUVwF4uRPEYHYOwP-1L-37" target="KiUVwF4uRPEYHYOwP-1L-40">
          <mxGeometry width="50" height="50" relative="1" as="geometry">
            <mxPoint x="930" y="450" as="sourcePoint" />
            <mxPoint x="980" y="400" as="targetPoint" />
          </mxGeometry>
        </mxCell>
        <mxCell id="KiUVwF4uRPEYHYOwP-1L-46" value="" style="endArrow=none;html=1;rounded=0;exitX=0.5;exitY=1;exitDx=0;exitDy=0;entryX=0;entryY=0.5;entryDx=0;entryDy=0;" edge="1" parent="1" source="KiUVwF4uRPEYHYOwP-1L-37" target="KiUVwF4uRPEYHYOwP-1L-41">
          <mxGeometry width="50" height="50" relative="1" as="geometry">
            <mxPoint x="1030" y="520" as="sourcePoint" />
            <mxPoint x="1140" y="418" as="targetPoint" />
            <Array as="points">
              <mxPoint x="985" y="610" />
              <mxPoint x="1020" y="610" />
              <mxPoint x="1070" y="610" />
            </Array>
          </mxGeometry>
        </mxCell>
      </root>
    </mxGraphModel>
  </diagram>
</mxfile>
